<svg width="192" height="256" viewBox="0 0 192 256" fill="none" xmlns="http://www.w3.org/2000/svg">
<path d="M96 128C108.658 128 121.032 124.246 131.557 117.214C142.081 110.182 150.284 100.186 155.128 88.4917C159.972 76.7973 161.24 63.929 158.77 51.5142C156.301 39.0994 150.205 27.6957 141.255 18.7452C132.304 9.7946 120.901 3.69919 108.486 1.22974C96.071 -1.23971 83.2027 0.0276998 71.5083 4.87171C59.8138 9.71572 49.8184 17.9188 42.7859 28.4435C35.7535 38.9683 32 51.342 32 64C32.0169 80.9687 38.7652 97.2375 50.7639 109.236C62.7625 121.235 79.0313 127.983 96 128ZM96 21.3333C104.439 21.3333 112.688 23.8357 119.704 28.524C126.721 33.2122 132.19 39.8759 135.419 47.6722C138.648 55.4685 139.493 64.0473 137.847 72.3239C136.201 80.6004 132.137 88.2029 126.17 94.1699C120.203 100.137 112.6 104.201 104.324 105.847C96.0473 107.493 87.4685 106.648 79.6722 103.419C71.8759 100.19 65.2122 94.7208 60.524 87.7043C55.8357 80.6878 53.3333 72.4387 53.3333 64C53.3333 52.6841 57.8286 41.8317 65.8301 33.8301C73.8317 25.8286 84.6841 21.3333 96 21.3333Z" fill="url(#paint0_linear_257_2)"/>
<path d="M96 149.333C70.5479 149.362 46.1463 159.485 28.1489 177.482C10.1516 195.48 0.0282331 219.881 0 245.333C0 248.162 1.12381 250.875 3.12419 252.876C5.12458 254.876 7.83769 256 10.6667 256C13.4956 256 16.2087 254.876 18.2091 252.876C20.2095 250.875 21.3333 248.162 21.3333 245.333C21.3333 225.531 29.2 206.539 43.2027 192.536C57.2054 178.533 76.1972 170.667 96 170.667C115.803 170.667 134.795 178.533 148.797 192.536C162.8 206.539 170.667 225.531 170.667 245.333C170.667 248.162 171.79 250.875 173.791 252.876C175.791 254.876 178.504 256 181.333 256C184.162 256 186.875 254.876 188.876 252.876C190.876 250.875 192 248.162 192 245.333C191.972 219.881 181.848 195.48 163.851 177.482C145.854 159.485 121.452 149.362 96 149.333Z" fill="url(#paint1_linear_257_2)"/>
<defs>
<linearGradient id="paint0_linear_257_2" x1="32" y1="64" x2="160" y2="64" gradientUnits="userSpaceOnUse">
<stop stop-color="#376FFF"/>
<stop offset="1" stop-color="#A144FF"/>
</linearGradient>
<linearGradient id="paint1_linear_257_2" x1="-9.53176e-07" y1="202.5" x2="192" y2="202.5" gradientUnits="userSpaceOnUse">
<stop stop-color="#376FFF"/>
<stop offset="1" stop-color="#A144FF"/>
</linearGradient>
</defs>
</svg>
