<svg width="61" height="61" viewBox="0 0 61 61" fill="none" xmlns="http://www.w3.org/2000/svg">
<g clip-path="url(#clip0_12_246)">
<path d="M30.5 30.5C33.5162 30.5 36.4646 29.6056 38.9724 27.9299C41.4803 26.2542 43.4349 23.8725 44.5892 21.0859C45.7434 18.2994 46.0454 15.2331 45.457 12.2749C44.8686 9.31667 43.4161 6.59938 41.2834 4.46663C39.1506 2.33388 36.4333 0.881456 33.4751 0.293031C30.5169 -0.295393 27.4507 0.00660761 24.6641 1.16084C21.8775 2.31508 19.4958 4.26971 17.8201 6.77756C16.1444 9.28541 15.25 12.2338 15.25 15.25C15.254 19.2933 16.862 23.1699 19.7211 26.0289C22.5801 28.888 26.4567 30.496 30.5 30.5ZM30.5 5.08334C32.5108 5.08334 34.4764 5.67961 36.1483 6.79673C37.8202 7.91386 39.1233 9.50168 39.8928 11.3594C40.6623 13.2171 40.8636 15.2613 40.4713 17.2334C40.079 19.2056 39.1108 21.0171 37.6889 22.4389C36.2671 23.8608 34.4556 24.829 32.4834 25.2213C30.5113 25.6136 28.4671 25.4123 26.6094 24.6428C24.7517 23.8733 23.1639 22.5702 22.0467 20.8983C20.9296 19.2264 20.3333 17.2608 20.3333 15.25C20.3333 12.5536 21.4045 9.96771 23.3111 8.06109C25.2177 6.15447 27.8036 5.08334 30.5 5.08334Z" fill="black"/>
<path d="M30.5 35.5833C24.4352 35.59 18.6208 38.0022 14.3324 42.2906C10.0439 46.5791 7.63173 52.3935 7.625 58.4583C7.625 59.1323 7.89278 59.7788 8.36944 60.2555C8.84609 60.7321 9.49257 60.9999 10.1667 60.9999C10.8408 60.9999 11.4872 60.7321 11.9639 60.2555C12.4406 59.7788 12.7083 59.1323 12.7083 58.4583C12.7083 53.7396 14.5828 49.2142 17.9194 45.8776C21.256 42.5411 25.7814 40.6666 30.5 40.6666C35.2186 40.6666 39.744 42.5411 43.0806 45.8776C46.4172 49.2142 48.2917 53.7396 48.2917 58.4583C48.2917 59.1323 48.5594 59.7788 49.0361 60.2555C49.5128 60.7321 50.1592 60.9999 50.8333 60.9999C51.5074 60.9999 52.1539 60.7321 52.6306 60.2555C53.1072 59.7788 53.375 59.1323 53.375 58.4583C53.3683 52.3935 50.9561 46.5791 46.6676 42.2906C42.3792 38.0022 36.5648 35.59 30.5 35.5833Z" fill="black"/>
</g>
<defs>
<clipPath id="clip0_12_246">
<rect width="61" height="61" fill="white"/>
</clipPath>
</defs>
</svg>
